<svg width="15" height="15" viewBox="0 0 15 15" fill="none" xmlns="http://www.w3.org/2000/svg">
<path fill-rule="evenodd" clip-rule="evenodd" d="M12.5225 7.35745C12.2617 7.35745 12.0915 7.52763 12.0915 7.8061V14.0408H9.01724V11.5124C9.01724 11.2892 8.84264 11.0638 8.63047 11.0638H6.40931C6.15294 11.0638 5.93856 11.287 5.93856 11.5124V14.0408H2.90408V8.02932C2.90408 7.75085 2.6897 7.58067 2.47753 7.58067C2.22116 7.58067 2.05098 7.75085 2.05098 8.02932V14.5469C2.05098 14.7724 2.22116 15 2.47753 15H6.40931C6.62369 15 6.79166 14.7724 6.79166 14.5469V11.9633H8.15972V14.5447C8.15972 14.7701 8.37631 14.9978 8.63047 14.9978H12.5225C12.7368 14.9978 12.949 14.7701 12.949 14.5447V7.80389C12.949 7.52542 12.7346 7.35745 12.5225 7.35745ZM14.8696 7.69338C12.0473 4.65891 10.2969 2.80684 7.77516 0.165758C7.69338 0.0552527 7.60719 0 7.51879 0C7.39281 0 7.26241 0.0552527 7.17843 0.165758L0.125976 7.63813C0.0442021 7.75085 0 7.86356 0 7.97407C0 8.08678 0.0442021 8.19729 0.125976 8.25254C0.300575 8.47797 0.552527 8.47797 0.727125 8.25254L7.51879 1.12052L14.2707 8.36526C14.3149 8.42272 14.4408 8.47797 14.5712 8.47797C14.6972 8.47797 14.7856 8.42272 14.8674 8.36526C15.042 8.1995 15.042 7.86356 14.8696 7.69338Z" fill="black"/>
</svg>
