<svg width="23" height="23" viewBox="0 0 23 23" fill="none" xmlns="http://www.w3.org/2000/svg">
<g clip-path="url(#clip0_166_2448)">
<path d="M11.22 22.44C17.4166 22.44 22.44 17.4166 22.44 11.22C22.44 5.02337 17.4166 0 11.22 0C5.02337 0 0 5.02337 0 11.22C0 17.4166 5.02337 22.44 11.22 22.44Z" fill="white"/>
<path d="M6.51984 9.12997H8.68984V16.11H6.51984V9.12997ZM7.59984 5.65997C8.29984 5.65997 8.85984 6.21997 8.85984 6.91997C8.85984 7.60997 8.29984 8.17997 7.59984 8.17997C6.89984 8.17997 6.33984 7.61997 6.33984 6.91997C6.33984 6.22997 6.90984 5.65997 7.59984 5.65997Z" fill="#4479B5"/>
<path d="M10.0498 9.13002H12.1298V10.09H12.1598C12.4498 9.54002 13.1598 8.96002 14.2198 8.96002C16.4198 8.96002 16.8198 10.41 16.8198 12.29V16.12H14.6498V12.72C14.6498 11.91 14.6298 10.87 13.5198 10.87C12.3898 10.87 12.2198 11.75 12.2198 12.66V16.11H10.0498V9.13002Z" fill="#4479B5"/>
</g>
<defs>
<clipPath id="clip0_166_2448">
<rect width="22.45" height="22.45" fill="white"/>
</clipPath>
</defs>
</svg>
